<svg xmlns="http://www.w3.org/2000/svg" viewBox="0 0 1024 1024" role="img" aria-labelledby="title desc">
  <title id="title">Rendl app icon — light</title>
  <desc id="desc">A glass ribbon shaped like a lowercase r.</desc>
  <defs>
    <radialGradient id="a" cx="0" cy="0" r="75%"><stop stop-color="#A7C9FF" stop-opacity=".95"/><stop offset="1" stop-color="#A7C9FF" stop-opacity="0"/></radialGradient>
    <radialGradient id="b" cx="100%" cy="12%" r="72%"><stop stop-color="#D8C6FF" stop-opacity=".9"/><stop offset="1" stop-color="#D8C6FF" stop-opacity="0"/></radialGradient>
    <radialGradient id="c" cx="25%" cy="100%" r="70%"><stop stop-color="#B3ECDD" stop-opacity=".9"/><stop offset="1" stop-color="#B3ECDD" stop-opacity="0"/></radialGradient>
    <linearGradient id="stem" x1="0" y1="0" x2="1" y2="1"><stop stop-color="#5AC8FA"/><stop offset=".45" stop-color="#007AFF"/><stop offset="1" stop-color="#1C3A6E"/></linearGradient>
    <linearGradient id="bowl" x1="0" y1="0" x2="1" y2="1"><stop stop-color="#007AFF"/><stop offset=".55" stop-color="#8F7EE7"/><stop offset="1" stop-color="#FFFFFF"/></linearGradient>
    <filter id="shadow" x="-30%" y="-30%" width="160%" height="160%"><feGaussianBlur stdDeviation="24"/></filter>
  </defs>
  <rect width="1024" height="1024" rx="220" fill="#EEF1F6"/>
  <rect width="1024" height="1024" rx="220" fill="url(#a)"/>
  <rect width="1024" height="1024" rx="220" fill="url(#b)"/>
  <rect width="1024" height="1024" rx="220" fill="url(#c)"/>
  <path d="M340 780V386c0-91 74-165 165-165" fill="none" stroke="#1B1F26" stroke-opacity=".16" stroke-width="190" stroke-linecap="round" filter="url(#shadow)"/>
  <path d="M340 780V386c0-91 74-165 165-165" fill="none" stroke="url(#stem)" stroke-width="164" stroke-linecap="round"/>
  <path d="M392 398c70-104 191-160 309-124 61 19 104 54 129 104" fill="none" stroke="url(#bowl)" stroke-opacity=".94" stroke-width="150" stroke-linecap="round"/>
  <path d="M291 382c14-100 99-178 202-182" fill="none" stroke="#FFFFFF" stroke-opacity=".68" stroke-width="11" stroke-linecap="round"/>
  <path d="M472 294c91-65 205-75 295-19" fill="none" stroke="#FFFFFF" stroke-opacity=".82" stroke-width="10" stroke-linecap="round"/>
  <rect x="8" y="8" width="1008" height="1008" rx="212" fill="none" stroke="#FFFFFF" stroke-opacity=".6" stroke-width="8"/>
</svg>
